<?xml version="1.0" encoding="UTF-8" standalone="no"?>
<!-- Creator: CorelDRAW X8 -->

<svg
   xmlns:dc="http://purl.org/dc/elements/1.1/"
   xmlns:cc="http://creativecommons.org/ns#"
   xmlns:rdf="http://www.w3.org/1999/02/22-rdf-syntax-ns#"
   xmlns:svg="http://www.w3.org/2000/svg"
   xmlns="http://www.w3.org/2000/svg"
   xmlns:sodipodi="http://sodipodi.sourceforge.net/DTD/sodipodi-0.dtd"
   xmlns:inkscape="http://www.inkscape.org/namespaces/inkscape"
   xml:space="preserve"
   width="3.7040355in"
   height="3.7040842in"
   version="1.1"
   style="clip-rule:evenodd;fill-rule:evenodd;image-rendering:optimizeQuality;shape-rendering:geometricPrecision;text-rendering:geometricPrecision"
   viewBox="0 0 3703.9458 3704.1159"
   id="svg20"
   sodipodi:docname="LogoUNNE.svg"
   inkscape:version="0.92.1 r15371"><metadata
     id="metadata24"><rdf:RDF><cc:Work
         rdf:about=""><dc:format>image/svg+xml</dc:format><dc:type
           rdf:resource="http://purl.org/dc/dcmitype/StillImage" /></cc:Work></rdf:RDF></metadata><sodipodi:namedview
     pagecolor="#ffffff"
     bordercolor="#666666"
     borderopacity="1"
     objecttolerance="10"
     gridtolerance="10"
     guidetolerance="10"
     inkscape:pageopacity="0"
     inkscape:pageshadow="2"
     inkscape:window-width="1360"
     inkscape:window-height="706"
     id="namedview22"
     showgrid="false"
     inkscape:zoom="1.2918474"
     inkscape:cx="198.72276"
     inkscape:cy="175.24255"
     inkscape:window-x="-8"
     inkscape:window-y="-8"
     inkscape:window-maximized="1"
     inkscape:current-layer="svg20" /><defs
     id="defs4"><style
       type="text/css"
       id="style2"><![CDATA[
    .str0 {stroke:white;stroke-width:3.93701}
    .str1 {stroke:white;stroke-width:1.9685}
    .fil0 {fill:none}
    .fil3 {fill:none;fill-rule:nonzero}
    .fil1 {fill:#E6E7E8}
    .fil2 {fill:#FEFEFE;fill-rule:nonzero}
   ]]></style></defs><ellipse
     style="fill:none;stroke:#ffffff;stroke-width:2.12723756"
     cy="-2606.5713"
     cx="-246.76472"
     id="ellipse7"
     ry="1867.9919"
     rx="1833.8002"
     transform="matrix(-0.77289058,0.63453932,-0.63731165,-0.77060617,0,0)"
     class="fil0 str0" /><ellipse
     style="fill:none;stroke:#ffffff;stroke-width:0.77664673"
     cy="-1871.5714"
     cx="-1833.3623"
     id="ellipse9"
     ry="1361.981"
     rx="1341.0138"
     transform="matrix(-0.99994942,0.01005722,-0.0101311,-0.99994868,0,0)"
     class="fil0 str1" /><path
     class="fil1"
     d="m 1153.168,1044.6904 c 0,322.5554 -34.7697,1000.8312 26.2109,1272.0345 179.1975,793.8179 1238.8696,777.2355 1412.1829,1.0698 64.7251,-287.2508 9.0936,-943.06 23.0015,-1284.3375 l -178.1276,-4.2794 c -13.373,370.698 13.9078,754.769 -1.6048,1123.3273 -31.5601,744.6055 -1068.2307,745.1405 -1098.1861,1.0698 -14.9777,-368.0234 17.6523,-757.4435 -3.2095,-1123.3272 z"
     id="path11"
     inkscape:connector-curvature="0"
     style="fill:#333333;stroke-width:0.53491777" /><path
     class="fil1"
     d="m 1861.934,1264.5416 -58.8409,-165.8245 1.6047,174.9181 c -24.0713,-22.4665 -5.3492,4.2794 -33.6998,-40.6537 -18.7221,-30.4903 -22.4666,-69.5393 -59.3759,-116.6121 l 39.5839,191.5006 c -26.7459,-23.0015 -111.2629,-135.8691 -121.9612,-166.3595 l 70.6091,191.5006 c -33.6998,-24.0713 -121.9612,-120.3565 -155.1261,-132.6596 28.8855,10.1634 91.4709,134.7993 115.0073,178.1276 -60.4457,-30.4903 -109.6581,-78.6329 -168.4991,-109.1232 l 131.5898,151.9166 -175.988,-73.2837 133.7295,126.2406 -164.2198,-37.9792 c 41.1887,41.7236 109.1232,66.3298 157.2658,95.2154 l -185.6164,-5.8841 173.3133,63.1203 -189.3609,31.0252 189.8958,29.4205 c -46.0029,32.0951 -86.6566,28.3506 -144.4278,56.7013 l 121.4264,23.5364 -145.4976,81.3075 188.8259,-42.2585 c -17.1173,26.2109 -3.7444,9.0936 -23.5364,29.4204 -0.5349,0.535 -28.8855,26.211 -31.5601,28.3507 l -50.8172,46.0029 c -2.1397,2.6746 -5.8841,6.419 -8.0238,10.1634 l 150.3119,-63.1203 c -33.6998,70.0743 -77.0281,73.8187 -102.1693,135.3342 66.8648,-29.4204 89.8662,-64.725 143.8929,-86.6566 l -108.5883,178.6625 c 47.6077,-50.2823 85.5868,-85.0519 143.358,-135.3342 l -69.5393,190.9656 c 14.9777,-24.0713 104.8438,-145.4976 124.1009,-165.8245 l -39.5839,190.9657 c 36.9093,-47.0728 44.3981,-86.6567 62.5853,-116.0772 23.0015,-36.9093 8.5587,-17.6523 31.0253,-38.5141 l -6.954,179.1975 54.0267,-173.8483 28.8856,151.9167 c 24.0713,-40.1189 24.0713,-90.4011 28.8856,-144.9627 47.6076,58.8409 30.4903,98.9597 65.7948,156.7309 l -5.8841,-171.7086 c 19.792,19.257 11.2333,5.8841 31.5602,40.1188 4.8143,8.5587 14.9777,32.63 18.7221,41.1887 16.0475,36.9093 18.7221,46.5378 40.1188,75.9583 l -39.5839,-190.9657 81.8424,104.8439 c 17.6523,24.0713 20.3269,26.211 35.3046,41.1887 l -63.1203,-170.6388 c 46.5379,37.4443 110.1931,92.0059 143.8929,133.1945 L 2116.5549,1873.278 c 63.1203,27.8158 95.2153,65.26 154.0563,92.0059 -45.468,-58.306 -87.7265,-86.1218 -118.2168,-144.9627 66.8647,21.9316 120.8914,56.7013 184.0117,78.6329 -19.2571,-16.0475 -40.1189,-34.7697 -66.3298,-54.5616 l -81.3075,-74.8885 187.2212,44.9331 c -23.5364,-13.373 -44.9331,-29.4205 -74.3536,-44.9331 -41.7236,-21.3967 -55.6314,-23.5364 -87.7265,-59.3759 l 169.034,8.0238 -173.3133,-63.1203 198.4544,-32.63 -199.5243,-27.2808 176.5229,-63.6552 -169.569,2.1397 c 49.7474,-59.9108 84.5171,-42.7935 141.7533,-96.2852 l -175.988,41.1886 c 24.6062,-34.7696 152.9865,-131.0548 162.0801,-132.1247 l -192.0355,78.633 108.0534,-134.7993 c -62.5854,28.8855 -81.3075,53.4918 -138.0088,81.3075 l 98.9598,-173.8483 c -26.7459,27.8157 -106.9835,103.2391 -144.4278,132.6596 l 70.0742,-188.826 c -15.5126,27.2809 -104.8438,146.5675 -125.1707,164.7547 l 41.1887,-190.9656 c -59.9108,71.144 -34.2348,101.0994 -93.6107,155.1261 l 6.954,-170.1038 -57.2362,172.7784 -28.3507,-193.6402 z"
     id="path13"
     inkscape:connector-curvature="0"
     style="fill:#d4aa00;stroke-width:0.53491777" /><path
     style="fill:#fefefe;fill-rule:nonzero;stroke-width:0.53491777"
     inkscape:connector-curvature="0"
     id="path16"
     d="m 984.13396,2892.2964 -154.05631,162.0801 -109.65814,-104.309 17.65228,-18.7221 88.26143,83.4471 48.1426,-50.2822 -76.49324,-72.7488 18.18721,-18.7222 76.49324,72.2139 69.53931,-73.2837 z m -119.82157,-114.4724 -224.66546,69.5393 -19.79196,-25.1412 116.61207,-205.9433 20.86179,25.6761 -36.3744,61.5155 57.2362,72.7488 66.86472,-22.4665 z m -110.19306,6.419 -46.00293,-58.841 -33.69982,55.6315 c -10.16344,16.5824 -18.72212,30.4903 -26.21097,40.6537 13.37294,-6.419 26.74589,-12.3031 40.65375,-16.5824 z m -172.77844,-286.7159 -8.55868,-28.8856 c 24.0713,-6.419 44.93309,-5.8841 63.65521,1.0698 18.72212,7.4889 34.23474,21.3968 45.46801,41.1887 11.76819,20.3269 17.65229,39.5839 16.58245,57.2362 -1.06984,17.6523 -7.48885,34.2347 -19.25704,50.2823 -11.76819,15.5126 -26.74589,28.8855 -44.93309,39.5839 -19.79196,11.2333 -39.049,17.6523 -58.30604,18.1872 -19.25704,1.0698 -36.3744,-3.2095 -51.88702,-12.838 -16.04753,-9.6285 -28.88556,-22.4666 -38.51408,-39.049 -10.69835,-19.2571 -15.51261,-37.9792 -13.37294,-56.7013 2.13967,-18.7221 10.69835,-35.3046 25.14113,-50.8172 l 20.32688,21.3967 c -11.23328,12.3031 -17.65229,24.6062 -19.25704,36.9093 -1.60476,11.7682 1.60475,24.0713 9.0936,36.9094 8.55868,14.4427 18.72212,24.6062 31.56015,30.4903 12.83802,5.8841 26.21097,7.4888 40.11883,4.2793 13.90786,-2.6746 27.28081,-7.4888 40.11883,-14.9777 16.04753,-9.0936 28.88556,-19.7919 37.97916,-31.5601 9.0936,-11.7682 13.90786,-24.0713 14.44278,-37.4443 0,-13.3729 -3.2095,-25.676 -10.16344,-37.4442 -8.02376,-13.9079 -18.72212,-23.5364 -32.62998,-28.8856 -13.90786,-4.8142 -29.42048,-4.2793 -47.60768,1.0699 z m -215.57186,-162.615 -9.62852,-27.8158 119.82158,-41.1886 c 20.86179,-6.954 37.97916,-10.6984 51.88702,-10.1635 13.90787,0.535 26.74589,5.8841 39.049,15.5127 11.76819,9.6285 21.39671,24.6062 27.81572,44.3981 6.95394,19.792 9.09361,36.3744 6.41902,51.3521 -2.13967,14.4428 -9.0936,26.7459 -19.79196,36.3744 -10.69835,9.6286 -27.28081,18.1872 -49.21243,25.6761 l -119.82158,41.7236 -9.62852,-27.8157 119.82158,-41.1887 c 18.1872,-6.419 31.02523,-12.3031 37.97916,-18.7221 7.48885,-6.419 12.30311,-14.4428 13.90786,-24.0713 2.13967,-9.6286 1.06984,-20.3269 -3.20951,-32.0951 -6.95393,-20.3269 -16.58245,-33.1649 -28.35064,-38.5141 -12.30311,-5.3492 -31.56015,-3.7444 -57.2362,5.3492 z m 184.54663,-144.9627 -215.57186,40.1188 -5.34917,-28.3507 190.43072,-35.8394 -19.79196,-106.4487 25.14114,-4.2793 z m -32.09506,-202.7339 -193.10532,16.5825 5.8841,72.2139 -25.14114,2.1396 -14.97769,-173.3133 25.67605,-2.6746 5.88409,72.7488 193.10532,-16.5824 z m -7.48885,-84.517 -218.24645,-87.7265 0.53492,-32.0951 220.92103,-86.1217 -0.53491,33.1649 -66.86472,24.6062 -1.60476,92.5408 66.3298,24.6062 z m -89.33127,-64.725 1.06984,-74.8885 -60.98063,21.9316 c -18.72212,6.9539 -33.69982,11.7682 -46.00293,14.9777 14.44278,3.2095 28.35065,7.4889 42.25851,12.838 z m 96.82012,-164.7547 -214.50203,-46.5378 16.04754,-73.8187 c 3.74442,-17.1174 7.48884,-29.4205 11.23327,-37.9792 5.88409,-11.7681 12.83803,-20.8618 22.46654,-28.3506 11.7682,-9.0936 25.67606,-14.9777 41.72359,-17.1174 16.58245,-2.6746 33.69982,-1.6047 52.95686,2.6746 16.58245,3.2095 30.49031,8.5587 42.2585,14.9777 11.76819,6.419 20.86179,13.373 27.81573,21.3967 6.95393,7.4889 12.3031,15.5126 15.51261,23.5364 3.20951,8.5587 4.81426,17.6523 4.81426,28.3507 0.53492,10.1634 -1.06984,21.9316 -3.74442,35.3045 z m -19.25704,-34.2347 10.16343,-45.468 c 3.20951,-14.4428 4.27935,-25.6761 3.20951,-34.2348 -1.06984,-8.5587 -3.20951,-16.0475 -6.95393,-21.9316 -5.34918,-8.0238 -13.37295,-15.5126 -24.0713,-21.3967 -10.16344,-6.419 -23.53638,-11.2333 -40.11883,-14.9777 -22.46655,-4.8143 -40.11883,-4.8143 -54.0267,0 -13.37294,4.8142 -23.53638,11.7682 -29.95539,21.9316 -4.81426,6.9539 -8.55868,18.7221 -12.30311,35.8395 l -9.62852,44.9331 z m 94.68044,-263.7145 -201.12908,-87.1916 30.49031,-69.5393 c 6.41902,-15.5126 12.83803,-27.2808 18.18721,-34.7697 7.48885,-10.1634 16.58245,-18.1872 27.2808,-23.0014 13.37295,-6.9539 28.35064,-10.1635 44.9331,-9.0936 16.04753,0.5349 33.1649,4.8142 51.3521,12.838 14.9777,6.419 27.81572,13.9079 37.97916,23.0015 10.16344,8.5587 18.1872,17.1173 23.53638,26.2109 5.34918,9.0936 8.55869,17.6523 10.16344,26.211 1.60475,8.5587 1.60475,18.1872 -0.53492,28.3507 -1.60475,10.6983 -5.34918,21.9316 -10.69835,34.2347 z m -11.76819,-36.9093 18.72212,-43.3284 c 5.8841,-12.838 9.0936,-24.0713 9.62852,-32.6299 1.06984,-8.5587 0,-16.0476 -2.67459,-22.4666 -3.20951,-9.0936 -9.62852,-17.6523 -18.72212,-26.211 -9.0936,-8.0237 -21.39671,-15.5126 -36.90933,-21.9316 -20.86179,-9.0936 -38.51407,-12.838 -52.95685,-10.6983 -14.44278,2.1396 -25.67606,6.9539 -33.69982,15.5126 -5.8841,5.8841 -12.30311,16.5824 -19.25704,32.63 l -18.18721,42.2585 z m 106.44863,-164.2198 -186.15138,-115.5422 83.44717,-134.79928 21.93163,13.37294 -68.46947,110.19304 57.2362,35.3046 64.19013,-103.23914 21.93163,13.90787 -64.19013,103.23917 63.65521,39.049 71.14406,-115.0074 21.93163,13.9079 z m 138.5437,-207.54806 -94.14552,-215.57186 22.46654,-22.46655 218.24645,93.0757 -24.0713,23.00146 -64.72505,-29.42048 -65.79488,65.25997 29.95539,64.19013 z m -18.72212,-108.58831 53.49178,-52.95686 -58.84096,-27.2808 c -18.1872,-8.02377 -32.62998,-14.9777 -43.32834,-21.39671 7.48885,12.30311 14.44278,25.14113 20.8618,38.51408 z M 990.55298,805.04727 860.56796,628.52441 939.20087,570.7533 c 15.51262,-11.7682 28.88556,-18.72213 39.58392,-21.93163 10.16343,-2.67459 20.86179,-2.13967 32.09511,2.67459 10.6983,4.27934 19.7919,11.23327 26.7458,20.86179 9.0936,12.83803 12.8381,26.21097 11.2333,40.65375 -2.1397,14.9777 -10.6983,29.42048 -25.676,44.39817 8.5586,-1.60475 15.5126,-2.13967 20.8618,-1.60475 11.2332,1.06984 23.5363,4.27934 36.3744,9.0936 l 66.3298,25.67605 -29.4205,21.39671 -50.2823,-19.25704 c -14.9777,-5.88409 -26.7459,-9.62851 -35.3046,-12.3031 -8.5586,-2.13967 -14.9777,-3.20951 -20.3268,-2.67459 -5.3492,0 -10.1635,1.06983 -14.44281,3.2095 -2.67459,1.06984 -7.48885,4.27935 -13.37294,8.55869 l -27.28081,19.79196 57.77116,78.63291 z M 941.34054,689.50504 991.62281,652.0608 c 10.69839,-7.48885 18.72209,-14.9777 23.00149,-21.39672 4.2793,-6.95393 6.419,-13.90786 5.8841,-20.86179 -0.5349,-7.48885 -2.6746,-13.90786 -6.954,-19.25704 -6.419,-8.55868 -14.44274,-13.37294 -24.60618,-13.90786 -9.62852,-1.06983 -21.39671,3.20951 -34.23473,12.83803 l -56.16637,41.18866 z m 366.41866,-111.2629 c 16.0475,2.13968 30.4903,2.13968 42.2585,0.53492 l 2.1397,21.93163 c -16.5825,2.13967 -34.7697,2.13967 -54.5616,-1.60475 -10.1635,15.51261 -23.5364,28.35064 -41.1887,37.44424 -17.6523,9.0936 -35.8395,13.37294 -54.5616,12.83803 -18.7221,-1.06984 -35.8395,-6.95393 -51.887,-18.18721 -16.0476,-11.23327 -28.8856,-26.21097 -39.049,-45.46801 -10.1635,-19.25704 -15.5126,-38.51408 -16.0476,-58.30603 -0.5349,-19.79196 4.2794,-37.44425 13.9079,-53.49178 10.1634,-15.51261 24.0713,-28.35064 41.7236,-37.97916 17.6523,-9.0936 36.3744,-13.90786 55.0965,-12.83803 18.7221,1.06984 36.3744,6.95393 51.887,18.18721 15.5127,11.23327 28.8856,26.21097 39.049,45.46801 8.5587,16.04753 13.373,31.56015 15.5127,46.53784 1.6047,15.51262 0.5349,30.49031 -4.2794,44.93309 z m -73.8186,-2.67458 c 16.5824,-3.20951 32.095,-3.74443 46.0029,-0.53492 8.0238,-21.93163 4.2793,-46.53785 -10.1635,-73.81865 -8.5586,-16.04754 -18.1872,-27.81573 -29.9553,-36.90933 -11.2333,-9.0936 -24.0713,-13.90786 -37.9792,-14.9777 -13.373,-0.53491 -26.7459,2.13968 -39.5839,9.09361 -18.7221,10.16343 -31.5602,25.14113 -36.9093,44.93309 -5.8841,19.79196 -1.6048,42.2585 12.3031,68.46947 13.3729,25.14114 29.9554,40.65375 49.2124,47.60768 19.792,6.95393 39.049,5.34918 58.8409,-5.34918 9.0937,-4.81426 16.5825,-11.23327 23.0015,-18.72212 -10.6983,-1.06983 -21.3967,0 -31.0252,2.13967 z m 227.8749,-254.62086 27.8157,-8.02376 36.3745,120.89141 c 6.419,21.39671 9.0936,39.049 8.0237,52.42194 -1.0698,13.90786 -6.9539,26.74589 -17.1173,38.51408 -10.1635,11.23327 -25.1412,20.32687 -45.4681,26.21097 -19.7919,5.88409 -36.9093,7.48885 -51.3521,4.27934 -14.4427,-3.20951 -26.7458,-10.16344 -35.8395,-21.39671 -9.0936,-11.23327 -17.1173,-27.81572 -23.5363,-50.28227 l -36.3744,-121.42633 27.8157,-8.02377 36.3744,120.89142 c 5.3492,18.1872 11.2333,31.56014 17.1174,39.04899 5.8841,7.48885 13.9078,12.30311 23.5363,14.44278 9.6286,2.67459 20.3269,1.60476 32.63,-1.60475 20.3269,-6.41901 33.1649,-15.51262 39.049,-27.28081 5.8841,-11.76819 5.3492,-31.02523 -2.6746,-57.2362 z m 143.8929,193.64023 -41.1887,-215.57186 28.3507,-5.34917 41.7236,215.03694 z m 135.3342,-18.1872 -17.1174,-193.10531 -72.2139,6.41901 -2.1396,-25.67605 173.3133,-14.9777 2.6746,25.14113 -72.2139,6.41902 16.5825,193.10531 z m 132.1247,-6.41902 14.4428,-218.78136 158.8705,10.69836 -1.6047,25.67605 -129.4501,-8.55869 -4.8143,66.86472 121.4264,8.02377 -1.6048,25.67605 -121.4263,-8.02376 -4.8143,74.88848 134.2644,9.0936 -1.6048,25.14114 z m 373.3726,-21.93162 26.7459,13.37294 c -11.2333,21.93163 -25.6761,37.44424 -43.8633,46.00293 -18.1872,9.0936 -38.5141,10.69835 -60.9806,5.88409 -23.0015,-5.34918 -40.6538,-13.90786 -52.9569,-26.74589 -12.3031,-12.83802 -20.3268,-28.88555 -24.0713,-48.14259 -3.7444,-19.79196 -3.2095,-39.58392 1.6048,-59.91079 4.8142,-22.46655 13.3729,-40.65375 25.676,-55.63145 12.3031,-14.44278 27.2808,-24.60622 44.9331,-29.42048 17.6523,-5.34917 35.8395,-5.34917 55.0966,-1.06983 21.3967,4.81426 37.9791,13.90786 50.2822,28.35064 12.3031,13.90786 19.2571,31.56015 20.3269,52.42194 l -29.4205,0.53492 c -1.6047,-16.58245 -5.8841,-29.42048 -13.9078,-38.51408 -8.0238,-9.62852 -19.2571,-15.51262 -33.1649,-18.72212 -16.5825,-3.74443 -31.5602,-3.20951 -43.8633,2.13967 -12.838,5.88409 -23.0015,14.44278 -30.4903,26.74589 -7.4889,12.3031 -12.838,25.67605 -16.0475,39.58391 -4.2794,18.1872 -4.8143,34.76965 -2.6746,49.21243 2.1396,14.9777 8.0237,26.74589 17.6523,36.37441 9.6285,9.0936 21.3967,14.9777 34.2347,18.18721 16.0475,3.2095 30.4903,1.60475 43.3283,-4.81426 13.373,-6.95394 23.5364,-18.72213 31.5602,-35.83949 z m 96.8201,117.6819 70.0742,-180.26728 -67.3996,-26.21097 9.0936,-24.0713 162.615,63.12029 -9.6285,24.0713 -67.3997,-26.21097 -70.0742,180.26729 z m 361.6044,-56.70128 24.6062,15.51262 -67.9345,106.98355 c -11.7682,18.72212 -23.5364,32.09506 -34.7697,40.11883 -11.2333,8.55868 -24.0713,12.30311 -39.5839,12.30311 -15.5126,0 -32.0951,-5.8841 -49.7474,-17.11737 -17.6522,-11.23327 -29.9554,-23.00146 -36.9093,-36.37441 -7.4888,-12.83802 -9.6285,-26.21097 -6.9539,-40.65375 2.1397,-14.44278 9.6285,-31.56015 21.9316,-50.81719 l 68.4695,-106.98355 24.6062,15.51262 -67.9346,106.98355 c -10.6983,16.04753 -16.5824,28.88556 -18.1872,38.51408 -2.1396,9.0936 -0.5349,18.72212 4.2794,27.2808 4.2793,8.55869 11.7682,16.58246 22.4665,23.00147 18.1872,11.76819 33.1649,15.51261 46.003,12.30311 12.838,-3.20951 26.7458,-16.58245 41.7235,-39.58392 z m -52.4219,228.40988 143.3579,-165.8245 73.8187,63.65521 c 14.9777,12.83803 25.1411,24.0713 29.9554,33.69982 5.3491,9.62852 6.9539,19.79196 4.8142,31.56015 -1.6047,11.23327 -6.419,21.93163 -14.4428,31.02523 -10.1634,11.76819 -22.4665,18.1872 -36.9093,19.79196 -14.9777,1.60475 -31.0252,-3.74443 -48.6775,-14.9777 3.2095,7.48885 5.3492,14.44278 5.8841,19.79196 1.6047,11.23327 1.0698,24.07129 -0.5349,37.44424 l -10.1635,70.07423 -27.8157,-23.53639 8.0238,-53.49177 c 2.1397,-15.51262 3.2095,-27.81573 3.7444,-36.90933 0,-8.55868 -0.5349,-15.51261 -1.6047,-20.32687 -1.6048,-5.34918 -3.7445,-9.62852 -6.4191,-13.37295 -2.1396,-2.67459 -5.8841,-6.41901 -11.7681,-11.23327 l -25.1412,-21.93163 -63.6552,73.81865 z m 102.1692,-73.81865 47.6077,41.18867 c 10.1635,8.55868 18.7222,14.44278 26.211,17.11737 7.4888,2.67459 14.4428,3.20951 21.3967,1.06983 6.9539,-2.13967 12.838,-5.88409 17.1174,-11.23327 6.9539,-8.02376 9.6285,-16.58245 8.5587,-26.74589 -1.6048,-10.16343 -8.5587,-20.32687 -20.8618,-31.02523 l -52.422,-44.93309 z m 46.5379,204.33859 220.921,-80.77258 20.8618,24.60621 -106.4486,211.29254 -21.9316,-25.1412 33.1649,-62.58533 -60.4457,-70.07423 -65.7949,25.67605 z m 109.1232,-11.76819 49.2125,56.70128 31.0252,-57.2362 c 9.6285,-17.11737 17.6523,-31.02523 24.0713,-41.72359 -12.838,6.95393 -25.6761,12.83803 -39.5839,18.18721 z m 102.1693,294.73966 80.2377,-46.5378 66.8647,-136.93897 17.6523,30.49027 -35.8395,70.6092 c -6.419,13.3729 -13.373,26.211 -20.3269,37.9791 13.373,0 28.3507,0.535 45.468,1.6048 l 77.5631,4.8143 16.5825,29.4204 -152.9865,-12.838 -80.7726,46.5379 z m 348.7664,277.6223 8.0238,27.8158 -121.4264,35.3045 c -21.3967,6.419 -39.049,9.0936 -52.9568,7.4889 -13.373,-1.0699 -26.211,-6.419 -37.9792,-17.1174 -11.2333,-10.1634 -19.792,-25.1411 -25.676,-45.468 -5.8841,-19.792 -6.954,-36.9093 -3.7445,-51.887 2.6746,-14.4428 10.1635,-26.211 21.3967,-35.3046 11.2333,-9.0936 28.3507,-17.1174 50.2823,-23.5364 l 121.9613,-35.3045 8.0237,28.3506 -121.4263,35.3046 c -18.1872,5.3491 -31.5602,10.6983 -39.049,16.5824 -7.4889,5.8841 -12.838,13.9079 -14.9777,23.5364 -2.1397,9.6285 -1.6048,20.3269 1.6048,32.63 5.884,20.3269 14.9776,33.6998 26.7458,39.5839 11.7682,5.8841 31.0253,4.8143 57.2362,-2.6746 z m -192.0355,137.4739 217.7115,-29.4205 12.8381,96.8201 c 2.6746,19.2571 2.6746,34.2348 0,44.9331 -2.1397,10.6984 -8.0238,19.792 -17.1174,27.2808 -9.0936,6.954 -19.792,11.7682 -31.5601,13.373 -15.5127,2.1397 -29.4205,-1.0699 -41.1887,-9.6285 -11.7682,-9.0936 -20.3269,-23.5364 -26.211,-43.8633 -2.6746,8.0238 -5.3492,14.4428 -8.5587,18.7221 -6.419,9.6285 -14.9777,18.7222 -25.676,27.8158 l -54.0267,46.0029 -4.8143,-36.3744 41.1887,-34.7697 c 11.7682,-10.1634 20.8618,-18.7221 27.2808,-24.6062 5.8841,-6.419 10.1634,-12.3031 12.3031,-17.1174 2.1397,-4.2793 3.7444,-9.0936 4.2793,-13.9078 0,-3.2095 -0.5349,-8.5587 -1.0698,-16.0476 l -4.8142,-33.1649 -96.2852,12.8381 z m 125.7057,12.3031 8.0238,62.0505 c 2.1396,13.3729 4.8142,23.5364 8.5586,30.4903 3.7445,6.9539 8.5587,11.7682 14.9777,14.9777 6.954,3.2095 13.373,4.2793 20.3269,3.2095 10.1634,-1.6048 18.1872,-6.419 24.0713,-14.4428 5.3492,-8.5587 7.4889,-20.8618 4.8143,-36.9093 l -9.0936,-69.0044 z m -101.0995,206.4783 219.3163,3.2095 -1.6047,82.3773 c 0,17.1174 -2.6746,30.4903 -6.954,40.6538 -4.8142,10.1634 -11.7682,17.6522 -20.8618,23.5363 -9.0936,5.3492 -19.257,8.5587 -28.8855,8.0238 -9.6285,0 -18.1872,-2.6746 -26.7459,-8.0238 -8.0238,-4.8142 -14.4428,-12.838 -19.792,-23.0014 -3.7444,12.838 -10.6983,23.0014 -20.3268,29.9554 -9.0936,7.4888 -20.3269,10.6983 -33.1649,10.6983 -10.1635,-0.5349 -19.792,-2.6746 -28.3507,-6.9539 -9.0936,-4.8143 -15.5126,-10.1634 -20.3269,-16.5825 -4.8142,-6.419 -8.0237,-14.4427 -10.6983,-24.0713 -2.1397,-10.1634 -3.2095,-21.9316 -3.2095,-35.8394 z m 126.7755,31.0252 -1.0698,47.6077 c 0,12.838 0.5349,22.4665 2.1397,27.8157 2.1396,7.4889 5.8841,13.3729 10.6983,17.1174 5.3492,3.7444 11.7682,5.8841 19.2571,5.8841 7.4888,0 13.9078,-1.6048 19.257,-5.3492 5.8841,-3.2095 9.6285,-8.0238 11.7682,-14.4428 2.1397,-6.419 3.2095,-17.6523 3.7444,-33.6998 l 0.5349,-43.8633 z m -101.6343,-1.6048 -0.535,55.0966 c -0.5349,9.0936 0,16.0475 0.535,19.7919 1.0698,6.419 3.2095,12.3031 5.8841,17.1174 2.6745,4.2793 6.419,8.0238 11.7682,11.2333 5.3491,2.6746 11.7681,4.2793 18.7221,4.2793 8.0237,0.5349 15.5126,-1.6047 21.3967,-5.8841 5.8841,-4.2793 10.6983,-9.6285 12.838,-17.1173 2.6746,-7.4889 4.2794,-18.1873 4.2794,-32.0951 l 0.5349,-51.3521 z m -29.4205,152.9865 202.7338,119.2867 -5.3492,31.5601 -230.5495,52.422 5.3492,-32.63 69.5393,-14.4428 14.9777,-91.4709 -61.5156,-34.2348 z m 78.6329,77.0282 -12.3031,74.3536 63.6552,-12.8381 c 19.792,-3.7444 35.3046,-6.419 48.1426,-8.0237 -13.9079,-5.3492 -26.7459,-11.7682 -39.5839,-19.2571 z m -120.3565,147.6373 208.6179,67.3996 -9.0936,28.3507 -199.5243,57.2362 164.2198,52.9568 -8.5587,26.7459 -209.1529,-67.3996 9.0936,-28.3507 199.5244,-57.2362 -163.6849,-52.9568 z m -78.098,213.4322 196.8497,96.8201 -12.838,26.211 -196.8497,-96.8202 z m 31.5602,102.7042 -12.3032,24.0713 c -10.1634,-4.2794 -19.257,-6.419 -27.8157,-6.419 -8.5587,0.5349 -17.1173,3.7444 -26.2109,10.1634 -9.0936,5.8841 -16.5825,14.4428 -23.5364,25.1411 -5.8841,9.6286 -9.6285,18.7222 -11.2333,27.8158 -1.6048,8.5586 -1.0698,16.5824 1.6048,23.0014 3.2095,6.419 6.9539,11.7682 12.838,14.9777 5.8841,3.7444 12.3031,5.3492 18.7221,4.8143 6.419,-1.0699 13.3729,-4.2794 21.3967,-10.1635 4.8143,-3.7444 14.9777,-13.3729 29.4205,-27.8157 14.9777,-14.9777 26.211,-24.6062 34.2347,-28.8855 10.1635,-6.4191 19.792,-9.0936 29.4205,-9.0936 9.6285,-0.535 18.7221,2.1396 27.2808,7.4888 9.6285,5.8841 16.5825,13.9079 21.3967,24.6062 4.8143,10.1635 6.419,21.9317 4.2794,34.7697 -2.1397,12.838 -6.954,25.676 -14.9777,38.5141 -8.5587,13.9078 -18.1872,24.6062 -28.8856,32.6299 -11.2333,7.4889 -23.0015,11.7682 -34.7696,12.3032 -12.3032,0 -24.0713,-2.6746 -35.3046,-9.0937 l 12.838,-25.1411 c 12.3031,6.419 24.0713,7.4889 34.7697,3.7444 10.6983,-3.7444 20.3268,-12.838 28.8855,-27.2808 9.6285,-14.9777 13.373,-27.2808 12.3031,-37.4442 -1.0698,-10.6984 -5.8841,-18.1872 -13.3729,-23.0015 -6.9539,-3.7444 -13.9079,-4.8142 -21.3967,-2.6746 -6.954,2.1397 -19.2571,11.7682 -36.3744,28.8856 -16.5825,17.6523 -29.4205,28.8856 -37.4443,34.2347 -11.7682,8.0238 -23.0014,12.3031 -33.6998,12.3031 -10.6984,0.535 -21.3967,-2.1396 -31.0252,-8.5586 -10.1635,-5.8841 -17.6523,-14.4428 -23.0015,-25.6761 -5.3492,-11.2333 -6.9539,-23.5364 -5.3492,-36.9093 1.6048,-13.9079 6.954,-27.2808 14.9777,-40.6538 10.6984,-17.1173 21.9317,-29.9554 33.6998,-37.9791 11.7682,-8.5587 24.6063,-12.8381 38.5141,-13.373 13.9079,-0.5349 27.2808,3.2095 40.1189,10.6984 z m -174.3832,143.8929 167.9641,140.1484 -27.8157,33.6998 -152.4515,-59.3758 c -13.9079,-5.8841 -24.6063,-10.1635 -31.5602,-12.8381 4.2794,6.954 10.6984,17.6523 19.2571,31.5602 l 83.4471,138.5437 -25.1411,29.9554 -168.4991,-140.6834 18.1872,-21.3967 140.6834,117.6819 -99.4947,-167.4293 16.5824,-19.7919 184.0117,71.144 -143.3579,-119.8215 z m -96.8201,267.9938 c 23.0014,28.3506 33.1649,56.7012 31.0252,85.0519 -2.1397,28.3506 -15.5126,52.4219 -39.5839,71.679 -15.5126,12.838 -33.1649,20.8618 -51.8871,23.5363 -18.7221,2.6746 -36.9093,0.535 -54.0266,-7.4888 -17.6523,-8.0238 -33.6999,-20.8618 -47.0728,-37.4443 -14.4428,-17.6522 -23.5364,-35.8394 -27.2808,-55.0965 -4.2794,-19.257 -2.6746,-37.4442 4.2793,-55.0965 7.4889,-17.1174 18.1872,-32.0951 33.1649,-43.8633 16.0476,-13.3729 33.6998,-21.3967 52.422,-23.5363 18.7221,-2.6746 36.9093,0 54.5616,8.0237 17.1173,8.0238 32.095,19.2571 44.3982,34.2348 z m -24.0713,18.7221 c -16.5825,-20.3269 -35.3046,-32.0951 -55.6315,-34.7697 -20.8618,-2.6746 -39.5839,2.6746 -56.1664,16.0476 -17.1173,13.9078 -26.2109,31.5601 -27.2808,52.4219 -1.0698,20.3269 6.954,41.7236 24.6063,63.6552 11.2332,13.9079 23.5363,24.0713 36.9093,30.4903 12.838,6.419 26.2109,9.0936 39.5839,6.954 13.9079,-1.6048 26.211,-6.954 37.4442,-16.0476 16.0476,-12.838 25.1412,-29.4205 27.8158,-49.7473 2.6745,-20.3269 -6.4191,-43.3284 -27.2808,-69.0044 z m -217.7116,243.3876 3.7445,21.9316 c -16.5825,2.6746 -28.8856,3.7444 -37.4443,3.2095 10.1634,14.9777 17.1174,25.676 20.3269,31.5601 l -19.2571,10.1635 c -4.2793,-8.5587 -9.0936,-20.3269 -14.4427,-34.2348 -6.419,9.6286 -14.4428,19.2571 -24.0713,29.4205 l -16.0476,-15.5126 c 9.0936,-9.6285 18.7222,-18.1872 28.8856,-25.1411 -8.0238,-1.6048 -19.792,-5.8841 -35.8395,-12.8381 l 9.6285,-19.257 c 8.5587,4.2793 19.792,10.1634 33.1649,18.7221 0,-16.0475 0.5349,-28.8855 2.1397,-37.9791 l 21.3967,3.2095 c -3.2095,18.1872 -6.419,29.9554 -8.5587,36.3744 12.838,-3.7444 24.6062,-6.954 36.3744,-9.6285 z m -357.86,186.6863 -27.8157,8.5586 -36.3744,-121.4263 c -6.419,-21.3967 -9.0936,-38.5141 -8.0238,-52.4219 1.0699,-13.9079 6.954,-26.7459 17.1174,-37.9792 10.1635,-11.7682 25.1412,-20.3269 45.468,-26.7459 19.792,-5.8841 36.9094,-7.4888 51.3521,-4.2793 14.4428,3.2095 26.7459,10.1634 35.8395,21.3967 9.0936,11.2333 17.1174,28.3506 23.5364,50.2823 l 36.3744,121.4263 -27.8157,8.5587 -36.3744,-121.4264 c -5.3492,-18.1872 -11.2333,-31.5601 -17.1174,-39.049 -5.8841,-7.4888 -13.9079,-12.3031 -23.5364,-14.4427 -9.6285,-2.1397 -20.3268,-1.6048 -32.095,1.6047 -20.8618,6.419 -33.6999,15.5126 -39.584,27.2808 -5.884,11.7682 -5.3491,31.0253 2.6746,57.2362 z m -223.0607,-178.6626 7.4889,218.7814 -29.9554,1.0698 -121.4263,-167.9642 6.419,172.2436 -28.3507,1.0698 -7.4888,-219.3163 29.9554,-1.0698 121.4263,167.9642 -6.419,-171.7086 z m -307.5777,-2.1396 -36.9093,216.1067 -29.4205,-4.8142 -84.517,-189.3609 -29.4205,169.5689 -27.2808,-4.8142 36.9094,-216.1068 29.4204,5.3492 85.052,188.8259 28.8855,-169.5689 z m -300.0888,-69.5394 -89.3313,200.5942 -145.4976,-65.26 10.6983,-23.5363 118.2168,52.9568 27.8158,-61.5155 -110.728,-49.2125 10.1634,-23.5363 110.728,49.2124 30.4903,-67.9346 -123.0311,-55.0965 10.6984,-23.5364 z m -354.6505,26.7459 -18.1872,13.373 c -9.6285,-13.9079 -16.5825,-24.6062 -20.3269,-32.0951 -9.09359,16.0475 -15.51261,26.7459 -19.25703,32.63 l -18.1872,-12.838 c 5.88409,-8.0238 14.44278,-17.6523 24.60621,-28.8856 -11.76819,-1.6047 -24.0713,-4.8143 -37.97916,-8.5587 l 6.95393,-21.9316 c 12.83803,4.2793 25.14114,9.0936 35.83949,14.9777 -2.13967,-8.0238 -3.2095,-20.8618 -4.81426,-38.5141 h 22.46652 c 0,9.6285 -0.5349,23.0015 -1.6047,38.5141 14.4428,-6.9539 26.2109,-12.3031 35.3045,-14.9777 l 6.954,20.8618 c -18.1872,5.3492 -30.4903,8.0238 -37.4443,9.0936 9.6286,9.6285 17.6523,19.257 25.6761,28.3506 z"
     class="fil2" /><path
     style="fill:#b3b3b3;fill-rule:nonzero;stroke:#ffffff;stroke-width:1.05298567"
     inkscape:connector-curvature="0"
     d="m 984.13396,2892.2964 -154.05631,162.0801 -109.65814,-104.309 17.65228,-18.7221 88.26143,83.4471 48.1426,-50.2822 -76.49324,-72.7488 18.18721,-18.7222 76.49324,72.2139 69.53931,-73.2837 z m -119.82157,-114.4724 -224.66546,69.5393 -19.79196,-25.1412 116.61207,-205.9433 20.86179,25.6761 -36.3744,61.5155 57.2362,72.7488 66.86472,-22.4665 z m -110.19306,6.419 -46.00293,-58.841 -33.69982,55.6315 c -10.16344,16.5824 -18.72212,30.4903 -26.21097,40.6537 13.37294,-6.419 26.74589,-12.3031 40.65375,-16.5824 z m -172.77844,-286.7159 -8.55868,-28.8856 c 24.0713,-6.419 44.93309,-5.8841 63.65521,1.0698 18.72212,7.4889 34.23474,21.3968 45.46801,41.1887 11.76819,20.3269 17.65229,39.5839 16.58245,57.2362 -1.06984,17.6523 -7.48885,34.2347 -19.25704,50.2823 -11.76819,15.5126 -26.74589,28.8855 -44.93309,39.5839 -19.79196,11.2333 -39.049,17.6523 -58.30604,18.1872 -19.25704,1.0698 -36.3744,-3.2095 -51.88702,-12.838 -16.04753,-9.6285 -28.88556,-22.4666 -38.51408,-39.049 -10.69835,-19.2571 -15.51261,-37.9792 -13.37294,-56.7013 2.13967,-18.7221 10.69835,-35.3046 25.14113,-50.8172 l 20.32688,21.3967 c -11.23328,12.3031 -17.65229,24.6062 -19.25704,36.9093 -1.60476,11.7682 1.60475,24.0713 9.0936,36.9094 8.55868,14.4427 18.72212,24.6062 31.56015,30.4903 12.83802,5.8841 26.21097,7.4888 40.11883,4.2793 13.90786,-2.6746 27.28081,-7.4888 40.11883,-14.9777 16.04753,-9.0936 28.88556,-19.7919 37.97916,-31.5601 9.0936,-11.7682 13.90786,-24.0713 14.44278,-37.4443 0,-13.3729 -3.2095,-25.676 -10.16344,-37.4442 -8.02376,-13.9079 -18.72212,-23.5364 -32.62998,-28.8856 -13.90786,-4.8142 -29.42048,-4.2793 -47.60768,1.0699 z m -215.57186,-162.615 -9.62852,-27.8158 119.82158,-41.1886 c 20.86179,-6.954 37.97916,-10.6984 51.88702,-10.1635 13.90787,0.535 26.74589,5.8841 39.049,15.5127 11.76819,9.6285 21.39671,24.6062 27.81572,44.3981 6.95394,19.792 9.09361,36.3744 6.41902,51.3521 -2.13967,14.4428 -9.0936,26.7459 -19.79196,36.3744 -10.69835,9.6286 -27.28081,18.1872 -49.21243,25.6761 l -119.82158,41.7236 -9.62852,-27.8157 119.82158,-41.1887 c 18.1872,-6.419 31.02523,-12.3031 37.97916,-18.7221 7.48885,-6.419 12.30311,-14.4428 13.90786,-24.0713 2.13967,-9.6286 1.06984,-20.3269 -3.20951,-32.0951 -6.95393,-20.3269 -16.58245,-33.1649 -28.35064,-38.5141 -12.30311,-5.3492 -31.56015,-3.7444 -57.2362,5.3492 z m 184.54663,-144.9627 -215.57186,40.1188 -5.34917,-28.3507 190.43072,-35.8394 -19.79196,-106.4487 25.14114,-4.2793 z m -32.09506,-202.7339 -193.10532,16.5825 5.8841,72.2139 -25.14114,2.1396 -14.97769,-173.3133 25.67605,-2.6746 5.88409,72.7488 193.10532,-16.5824 z m -7.48885,-84.517 -218.24645,-87.7265 0.53492,-32.0951 220.92103,-86.1217 -0.53491,33.1649 -66.86472,24.6062 -1.60476,92.5408 66.3298,24.6062 z m -89.33127,-64.725 1.06984,-74.8885 -60.98063,21.9316 c -18.72212,6.9539 -33.69982,11.7682 -46.00293,14.9777 14.44278,3.2095 28.35065,7.4889 42.25851,12.838 z m 96.82012,-164.7547 -214.50203,-46.5378 16.04754,-73.8187 c 3.74442,-17.1174 7.48884,-29.4205 11.23327,-37.9792 5.88409,-11.7681 12.83803,-20.8618 22.46654,-28.3506 11.7682,-9.0936 25.67606,-14.9777 41.72359,-17.1174 16.58245,-2.6746 33.69982,-1.6047 52.95686,2.6746 16.58245,3.2095 30.49031,8.5587 42.2585,14.9777 11.76819,6.419 20.86179,13.373 27.81573,21.3967 6.95393,7.4889 12.3031,15.5126 15.51261,23.5364 3.20951,8.5587 4.81426,17.6523 4.81426,28.3507 0.53492,10.1634 -1.06984,21.9316 -3.74442,35.3045 z m -19.25704,-34.2347 10.16343,-45.468 c 3.20951,-14.4428 4.27935,-25.6761 3.20951,-34.2348 -1.06984,-8.5587 -3.20951,-16.0475 -6.95393,-21.9316 -5.34918,-8.0238 -13.37295,-15.5126 -24.0713,-21.3967 -10.16344,-6.419 -23.53638,-11.2333 -40.11883,-14.9777 -22.46655,-4.8143 -40.11883,-4.8143 -54.0267,0 -13.37294,4.8142 -23.53638,11.7682 -29.95539,21.9316 -4.81426,6.9539 -8.55868,18.7221 -12.30311,35.8395 l -9.62852,44.9331 z m 94.68044,-263.7145 -201.12908,-87.1916 30.49031,-69.5393 c 6.41902,-15.5126 12.83803,-27.2808 18.18721,-34.7697 7.48885,-10.1634 16.58245,-18.1872 27.2808,-23.0014 13.37295,-6.9539 28.35064,-10.1635 44.9331,-9.0936 16.04753,0.5349 33.1649,4.8142 51.3521,12.838 14.9777,6.419 27.81572,13.9079 37.97916,23.0015 10.16344,8.5587 18.1872,17.1173 23.53638,26.2109 5.34918,9.0936 8.55869,17.6523 10.16344,26.211 1.60475,8.5587 1.60475,18.1872 -0.53492,28.3507 -1.60475,10.6983 -5.34918,21.9316 -10.69835,34.2347 z m -11.76819,-36.9093 18.72212,-43.3284 c 5.8841,-12.838 9.0936,-24.0713 9.62852,-32.6299 1.06984,-8.5587 0,-16.0476 -2.67459,-22.4666 -3.20951,-9.0936 -9.62852,-17.6523 -18.72212,-26.211 -9.0936,-8.0237 -21.39671,-15.5126 -36.90933,-21.9316 -20.86179,-9.0936 -38.51407,-12.838 -52.95685,-10.6983 -14.44278,2.1396 -25.67606,6.9539 -33.69982,15.5126 -5.8841,5.8841 -12.30311,16.5824 -19.25704,32.63 l -18.18721,42.2585 z m 106.44863,-164.2198 -186.15138,-115.5422 83.44717,-134.79928 21.93163,13.37294 -68.46947,110.19304 57.2362,35.3046 64.19013,-103.23914 21.93163,13.90787 -64.19013,103.23917 63.65521,39.049 71.14406,-115.0074 21.93163,13.9079 z m 138.5437,-207.54806 -94.14552,-215.57186 22.46654,-22.46655 218.24645,93.0757 -24.0713,23.00146 -64.72505,-29.42048 -65.79488,65.25997 29.95539,64.19013 z m -18.72212,-108.58831 53.49178,-52.95686 -58.84096,-27.2808 c -18.1872,-8.02377 -32.62998,-14.9777 -43.32834,-21.39671 7.48885,12.30311 14.44278,25.14113 20.8618,38.51408 z M 990.55298,805.04727 860.56796,628.52441 939.20087,570.7533 c 15.51262,-11.7682 28.88556,-18.72213 39.58392,-21.93163 10.16343,-2.67459 20.86179,-2.13967 32.09511,2.67459 10.6983,4.27934 19.7919,11.23327 26.7458,20.86179 9.0936,12.83803 12.8381,26.21097 11.2333,40.65375 -2.1397,14.9777 -10.6983,29.42048 -25.676,44.39817 8.5586,-1.60475 15.5126,-2.13967 20.8618,-1.60475 11.2332,1.06984 23.5363,4.27934 36.3744,9.0936 l 66.3298,25.67605 -29.4205,21.39671 -50.2823,-19.25704 c -14.9777,-5.88409 -26.7459,-9.62851 -35.3046,-12.3031 -8.5586,-2.13967 -14.9777,-3.20951 -20.3268,-2.67459 -5.3492,0 -10.1635,1.06983 -14.44281,3.2095 -2.67459,1.06984 -7.48885,4.27935 -13.37294,8.55869 l -27.28081,19.79196 57.77116,78.63291 z M 941.34054,689.50504 991.62281,652.0608 c 10.69839,-7.48885 18.72209,-14.9777 23.00149,-21.39672 4.2793,-6.95393 6.419,-13.90786 5.8841,-20.86179 -0.5349,-7.48885 -2.6746,-13.90786 -6.954,-19.25704 -6.419,-8.55868 -14.44274,-13.37294 -24.60618,-13.90786 -9.62852,-1.06983 -21.39671,3.20951 -34.23473,12.83803 l -56.16637,41.18866 z m 366.41866,-111.2629 c 16.0475,2.13968 30.4903,2.13968 42.2585,0.53492 l 2.1397,21.93163 c -16.5825,2.13967 -34.7697,2.13967 -54.5616,-1.60475 -10.1635,15.51261 -23.5364,28.35064 -41.1887,37.44424 -17.6523,9.0936 -35.8395,13.37294 -54.5616,12.83803 -18.7221,-1.06984 -35.8395,-6.95393 -51.887,-18.18721 -16.0476,-11.23327 -28.8856,-26.21097 -39.049,-45.46801 -10.1635,-19.25704 -15.5126,-38.51408 -16.0476,-58.30603 -0.5349,-19.79196 4.2794,-37.44425 13.9079,-53.49178 10.1634,-15.51261 24.0713,-28.35064 41.7236,-37.97916 17.6523,-9.0936 36.3744,-13.90786 55.0965,-12.83803 18.7221,1.06984 36.3744,6.95393 51.887,18.18721 15.5127,11.23327 28.8856,26.21097 39.049,45.46801 8.5587,16.04753 13.373,31.56015 15.5127,46.53784 1.6047,15.51262 0.5349,30.49031 -4.2794,44.93309 z m -73.8186,-2.67458 c 16.5824,-3.20951 32.095,-3.74443 46.0029,-0.53492 8.0238,-21.93163 4.2793,-46.53785 -10.1635,-73.81865 -8.5586,-16.04754 -18.1872,-27.81573 -29.9553,-36.90933 -11.2333,-9.0936 -24.0713,-13.90786 -37.9792,-14.9777 -13.373,-0.53491 -26.7459,2.13968 -39.5839,9.09361 -18.7221,10.16343 -31.5602,25.14113 -36.9093,44.93309 -5.8841,19.79196 -1.6048,42.2585 12.3031,68.46947 13.3729,25.14114 29.9554,40.65375 49.2124,47.60768 19.792,6.95393 39.049,5.34918 58.8409,-5.34918 9.0937,-4.81426 16.5825,-11.23327 23.0015,-18.72212 -10.6983,-1.06983 -21.3967,0 -31.0252,2.13967 z m 227.8749,-254.62086 27.8157,-8.02376 36.3745,120.89141 c 6.419,21.39671 9.0936,39.049 8.0237,52.42194 -1.0698,13.90786 -6.9539,26.74589 -17.1173,38.51408 -10.1635,11.23327 -25.1412,20.32687 -45.4681,26.21097 -19.7919,5.88409 -36.9093,7.48885 -51.3521,4.27934 -14.4427,-3.20951 -26.7458,-10.16344 -35.8395,-21.39671 -9.0936,-11.23327 -17.1173,-27.81572 -23.5363,-50.28227 l -36.3744,-121.42633 27.8157,-8.02377 36.3744,120.89142 c 5.3492,18.1872 11.2333,31.56014 17.1174,39.04899 5.8841,7.48885 13.9078,12.30311 23.5363,14.44278 9.6286,2.67459 20.3269,1.60476 32.63,-1.60475 20.3269,-6.41901 33.1649,-15.51262 39.049,-27.28081 5.8841,-11.76819 5.3492,-31.02523 -2.6746,-57.2362 z m 143.8929,193.64023 -41.1887,-215.57186 28.3507,-5.34917 41.7236,215.03694 z m 135.3342,-18.1872 -17.1174,-193.10531 -72.2139,6.41901 -2.1396,-25.67605 173.3133,-14.9777 2.6746,25.14113 -72.2139,6.41902 16.5825,193.10531 z m 132.1247,-6.41902 14.4428,-218.78136 158.8705,10.69836 -1.6047,25.67605 -129.4501,-8.55869 -4.8143,66.86472 121.4264,8.02377 -1.6048,25.67605 -121.4263,-8.02376 -4.8143,74.88848 134.2644,9.0936 -1.6048,25.14114 z m 373.3726,-21.93162 26.7459,13.37294 c -11.2333,21.93163 -25.6761,37.44424 -43.8633,46.00293 -18.1872,9.0936 -38.5141,10.69835 -60.9806,5.88409 -23.0015,-5.34918 -40.6538,-13.90786 -52.9569,-26.74589 -12.3031,-12.83802 -20.3268,-28.88555 -24.0713,-48.14259 -3.7444,-19.79196 -3.2095,-39.58392 1.6048,-59.91079 4.8142,-22.46655 13.3729,-40.65375 25.676,-55.63145 12.3031,-14.44278 27.2808,-24.60622 44.9331,-29.42048 17.6523,-5.34917 35.8395,-5.34917 55.0966,-1.06983 21.3967,4.81426 37.9791,13.90786 50.2822,28.35064 12.3031,13.90786 19.2571,31.56015 20.3269,52.42194 l -29.4205,0.53492 c -1.6047,-16.58245 -5.8841,-29.42048 -13.9078,-38.51408 -8.0238,-9.62852 -19.2571,-15.51262 -33.1649,-18.72212 -16.5825,-3.74443 -31.5602,-3.20951 -43.8633,2.13967 -12.838,5.88409 -23.0015,14.44278 -30.4903,26.74589 -7.4889,12.3031 -12.838,25.67605 -16.0475,39.58391 -4.2794,18.1872 -4.8143,34.76965 -2.6746,49.21243 2.1396,14.9777 8.0237,26.74589 17.6523,36.37441 9.6285,9.0936 21.3967,14.9777 34.2347,18.18721 16.0475,3.2095 30.4903,1.60475 43.3283,-4.81426 13.373,-6.95394 23.5364,-18.72213 31.5602,-35.83949 z m 96.8201,117.6819 70.0742,-180.26728 -67.3996,-26.21097 9.0936,-24.0713 162.615,63.12029 -9.6285,24.0713 -67.3997,-26.21097 -70.0742,180.26729 z m 361.6044,-56.70128 24.6062,15.51262 -67.9345,106.98355 c -11.7682,18.72212 -23.5364,32.09506 -34.7697,40.11883 -11.2333,8.55868 -24.0713,12.30311 -39.5839,12.30311 -15.5126,0 -32.0951,-5.8841 -49.7474,-17.11737 -17.6522,-11.23327 -29.9554,-23.00146 -36.9093,-36.37441 -7.4888,-12.83802 -9.6285,-26.21097 -6.9539,-40.65375 2.1397,-14.44278 9.6285,-31.56015 21.9316,-50.81719 l 68.4695,-106.98355 24.6062,15.51262 -67.9346,106.98355 c -10.6983,16.04753 -16.5824,28.88556 -18.1872,38.51408 -2.1396,9.0936 -0.5349,18.72212 4.2794,27.2808 4.2793,8.55869 11.7682,16.58246 22.4665,23.00147 18.1872,11.76819 33.1649,15.51261 46.003,12.30311 12.838,-3.20951 26.7458,-16.58245 41.7235,-39.58392 z m -52.4219,228.40988 143.3579,-165.8245 73.8187,63.65521 c 14.9777,12.83803 25.1411,24.0713 29.9554,33.69982 5.3491,9.62852 6.9539,19.79196 4.8142,31.56015 -1.6047,11.23327 -6.419,21.93163 -14.4428,31.02523 -10.1634,11.76819 -22.4665,18.1872 -36.9093,19.79196 -14.9777,1.60475 -31.0252,-3.74443 -48.6775,-14.9777 3.2095,7.48885 5.3492,14.44278 5.8841,19.79196 1.6047,11.23327 1.0698,24.07129 -0.5349,37.44424 l -10.1635,70.07423 -27.8157,-23.53639 8.0238,-53.49177 c 2.1397,-15.51262 3.2095,-27.81573 3.7444,-36.90933 0,-8.55868 -0.5349,-15.51261 -1.6047,-20.32687 -1.6048,-5.34918 -3.7445,-9.62852 -6.4191,-13.37295 -2.1396,-2.67459 -5.8841,-6.41901 -11.7681,-11.23327 l -25.1412,-21.93163 -63.6552,73.81865 z m 102.1692,-73.81865 47.6077,41.18867 c 10.1635,8.55868 18.7222,14.44278 26.211,17.11737 7.4888,2.67459 14.4428,3.20951 21.3967,1.06983 6.9539,-2.13967 12.838,-5.88409 17.1174,-11.23327 6.9539,-8.02376 9.6285,-16.58245 8.5587,-26.74589 -1.6048,-10.16343 -8.5587,-20.32687 -20.8618,-31.02523 l -52.422,-44.93309 z m 46.5379,204.33859 220.921,-80.77258 20.8618,24.60621 -106.4486,211.29254 -21.9316,-25.1412 33.1649,-62.58533 -60.4457,-70.07423 -65.7949,25.67605 z m 109.1232,-11.76819 49.2125,56.70128 31.0252,-57.2362 c 9.6285,-17.11737 17.6523,-31.02523 24.0713,-41.72359 -12.838,6.95393 -25.6761,12.83803 -39.5839,18.18721 z m 102.1693,294.73966 80.2377,-46.5378 66.8647,-136.93897 17.6523,30.49027 -35.8395,70.6092 c -6.419,13.3729 -13.373,26.211 -20.3269,37.9791 13.373,0 28.3507,0.535 45.468,1.6048 l 77.5631,4.8143 16.5825,29.4204 -152.9865,-12.838 -80.7726,46.5379 z m 348.7664,277.6223 8.0238,27.8158 -121.4264,35.3045 c -21.3967,6.419 -39.049,9.0936 -52.9568,7.4889 -13.373,-1.0699 -26.211,-6.419 -37.9792,-17.1174 -11.2333,-10.1634 -19.792,-25.1411 -25.676,-45.468 -5.8841,-19.792 -6.954,-36.9093 -3.7445,-51.887 2.6746,-14.4428 10.1635,-26.211 21.3967,-35.3046 11.2333,-9.0936 28.3507,-17.1174 50.2823,-23.5364 l 121.9613,-35.3045 8.0237,28.3506 -121.4263,35.3046 c -18.1872,5.3491 -31.5602,10.6983 -39.049,16.5824 -7.4889,5.8841 -12.838,13.9079 -14.9777,23.5364 -2.1397,9.6285 -1.6048,20.3269 1.6048,32.63 5.884,20.3269 14.9776,33.6998 26.7458,39.5839 11.7682,5.8841 31.0253,4.8143 57.2362,-2.6746 z m -192.0355,137.4739 217.7115,-29.4205 12.8381,96.8201 c 2.6746,19.2571 2.6746,34.2348 0,44.9331 -2.1397,10.6984 -8.0238,19.792 -17.1174,27.2808 -9.0936,6.954 -19.792,11.7682 -31.5601,13.373 -15.5127,2.1397 -29.4205,-1.0699 -41.1887,-9.6285 -11.7682,-9.0936 -20.3269,-23.5364 -26.211,-43.8633 -2.6746,8.0238 -5.3492,14.4428 -8.5587,18.7221 -6.419,9.6285 -14.9777,18.7222 -25.676,27.8158 l -54.0267,46.0029 -4.8143,-36.3744 41.1887,-34.7697 c 11.7682,-10.1634 20.8618,-18.7221 27.2808,-24.6062 5.8841,-6.419 10.1634,-12.3031 12.3031,-17.1174 2.1397,-4.2793 3.7444,-9.0936 4.2793,-13.9078 0,-3.2095 -0.5349,-8.5587 -1.0698,-16.0476 l -4.8142,-33.1649 -96.2852,12.8381 z m 125.7057,12.3031 8.0238,62.0505 c 2.1396,13.3729 4.8142,23.5364 8.5586,30.4903 3.7445,6.9539 8.5587,11.7682 14.9777,14.9777 6.954,3.2095 13.373,4.2793 20.3269,3.2095 10.1634,-1.6048 18.1872,-6.419 24.0713,-14.4428 5.3492,-8.5587 7.4889,-20.8618 4.8143,-36.9093 l -9.0936,-69.0044 z m -101.0995,206.4783 219.3163,3.2095 -1.6047,82.3773 c 0,17.1174 -2.6746,30.4903 -6.954,40.6538 -4.8142,10.1634 -11.7682,17.6522 -20.8618,23.5363 -9.0936,5.3492 -19.257,8.5587 -28.8855,8.0238 -9.6285,0 -18.1872,-2.6746 -26.7459,-8.0238 -8.0238,-4.8142 -14.4428,-12.838 -19.792,-23.0014 -3.7444,12.838 -10.6983,23.0014 -20.3268,29.9554 -9.0936,7.4888 -20.3269,10.6983 -33.1649,10.6983 -10.1635,-0.5349 -19.792,-2.6746 -28.3507,-6.9539 -9.0936,-4.8143 -15.5126,-10.1634 -20.3269,-16.5825 -4.8142,-6.419 -8.0237,-14.4427 -10.6983,-24.0713 -2.1397,-10.1634 -3.2095,-21.9316 -3.2095,-35.8394 z m 126.7755,31.0252 -1.0698,47.6077 c 0,12.838 0.5349,22.4665 2.1397,27.8157 2.1396,7.4889 5.8841,13.3729 10.6983,17.1174 5.3492,3.7444 11.7682,5.8841 19.2571,5.8841 7.4888,0 13.9078,-1.6048 19.257,-5.3492 5.8841,-3.2095 9.6285,-8.0238 11.7682,-14.4428 2.1397,-6.419 3.2095,-17.6523 3.7444,-33.6998 l 0.5349,-43.8633 z m -101.6343,-1.6048 -0.535,55.0966 c -0.5349,9.0936 0,16.0475 0.535,19.7919 1.0698,6.419 3.2095,12.3031 5.8841,17.1174 2.6745,4.2793 6.419,8.0238 11.7682,11.2333 5.3491,2.6746 11.7681,4.2793 18.7221,4.2793 8.0237,0.5349 15.5126,-1.6047 21.3967,-5.8841 5.8841,-4.2793 10.6983,-9.6285 12.838,-17.1173 2.6746,-7.4889 4.2794,-18.1873 4.2794,-32.0951 l 0.5349,-51.3521 z m -29.4205,152.9865 202.7338,119.2867 -5.3492,31.5601 -230.5495,52.422 5.3492,-32.63 69.5393,-14.4428 14.9777,-91.4709 -61.5156,-34.2348 z m 78.6329,77.0282 -12.3031,74.3536 63.6552,-12.8381 c 19.792,-3.7444 35.3046,-6.419 48.1426,-8.0237 -13.9079,-5.3492 -26.7459,-11.7682 -39.5839,-19.2571 z m -120.3565,147.6373 208.6179,67.3996 -9.0936,28.3507 -199.5243,57.2362 164.2198,52.9568 -8.5587,26.7459 -209.1529,-67.3996 9.0936,-28.3507 199.5244,-57.2362 -163.6849,-52.9568 z m -78.098,213.4322 196.8497,96.8201 -12.838,26.211 -196.8497,-96.8202 z m 31.5602,102.7042 -12.3032,24.0713 c -10.1634,-4.2794 -19.257,-6.419 -27.8157,-6.419 -8.5587,0.5349 -17.1173,3.7444 -26.2109,10.1634 -9.0936,5.8841 -16.5825,14.4428 -23.5364,25.1411 -5.8841,9.6286 -9.6285,18.7222 -11.2333,27.8158 -1.6048,8.5586 -1.0698,16.5824 1.6048,23.0014 3.2095,6.419 6.9539,11.7682 12.838,14.9777 5.8841,3.7444 12.3031,5.3492 18.7221,4.8143 6.419,-1.0699 13.3729,-4.2794 21.3967,-10.1635 4.8143,-3.7444 14.9777,-13.3729 29.4205,-27.8157 14.9777,-14.9777 26.211,-24.6062 34.2347,-28.8855 10.1635,-6.4191 19.792,-9.0936 29.4205,-9.0936 9.6285,-0.535 18.7221,2.1396 27.2808,7.4888 9.6285,5.8841 16.5825,13.9079 21.3967,24.6062 4.8143,10.1635 6.419,21.9317 4.2794,34.7697 -2.1397,12.838 -6.954,25.676 -14.9777,38.5141 -8.5587,13.9078 -18.1872,24.6062 -28.8856,32.6299 -11.2333,7.4889 -23.0015,11.7682 -34.7696,12.3032 -12.3032,0 -24.0713,-2.6746 -35.3046,-9.0937 l 12.838,-25.1411 c 12.3031,6.419 24.0713,7.4889 34.7697,3.7444 10.6983,-3.7444 20.3268,-12.838 28.8855,-27.2808 9.6285,-14.9777 13.373,-27.2808 12.3031,-37.4442 -1.0698,-10.6984 -5.8841,-18.1872 -13.3729,-23.0015 -6.9539,-3.7444 -13.9079,-4.8142 -21.3967,-2.6746 -6.954,2.1397 -19.2571,11.7682 -36.3744,28.8856 -16.5825,17.6523 -29.4205,28.8856 -37.4443,34.2347 -11.7682,8.0238 -23.0014,12.3031 -33.6998,12.3031 -10.6984,0.535 -21.3967,-2.1396 -31.0252,-8.5586 -10.1635,-5.8841 -17.6523,-14.4428 -23.0015,-25.6761 -5.3492,-11.2333 -6.9539,-23.5364 -5.3492,-36.9093 1.6048,-13.9079 6.954,-27.2808 14.9777,-40.6538 10.6984,-17.1173 21.9317,-29.9554 33.6998,-37.9791 11.7682,-8.5587 24.6063,-12.8381 38.5141,-13.373 13.9079,-0.5349 27.2808,3.2095 40.1189,10.6984 z m -174.3832,143.8929 167.9641,140.1484 -27.8157,33.6998 -152.4515,-59.3758 c -13.9079,-5.8841 -24.6063,-10.1635 -31.5602,-12.8381 4.2794,6.954 10.6984,17.6523 19.2571,31.5602 l 83.4471,138.5437 -25.1411,29.9554 -168.4991,-140.6834 18.1872,-21.3967 140.6834,117.6819 -99.4947,-167.4293 16.5824,-19.7919 184.0117,71.144 -143.3579,-119.8215 z m -96.8201,267.9938 c 23.0014,28.3506 33.1649,56.7012 31.0252,85.0519 -2.1397,28.3506 -15.5126,52.4219 -39.5839,71.679 -15.5126,12.838 -33.1649,20.8618 -51.8871,23.5363 -18.7221,2.6746 -36.9093,0.535 -54.0266,-7.4888 -17.6523,-8.0238 -33.6999,-20.8618 -47.0728,-37.4443 -14.4428,-17.6522 -23.5364,-35.8394 -27.2808,-55.0965 -4.2794,-19.257 -2.6746,-37.4442 4.2793,-55.0965 7.4889,-17.1174 18.1872,-32.0951 33.1649,-43.8633 16.0476,-13.3729 33.6998,-21.3967 52.422,-23.5363 18.7221,-2.6746 36.9093,0 54.5616,8.0237 17.1173,8.0238 32.095,19.2571 44.3982,34.2348 z m -24.0713,18.7221 c -16.5825,-20.3269 -35.3046,-32.0951 -55.6315,-34.7697 -20.8618,-2.6746 -39.5839,2.6746 -56.1664,16.0476 -17.1173,13.9078 -26.2109,31.5601 -27.2808,52.4219 -1.0698,20.3269 6.954,41.7236 24.6063,63.6552 11.2332,13.9079 23.5363,24.0713 36.9093,30.4903 12.838,6.419 26.2109,9.0936 39.5839,6.954 13.9079,-1.6048 26.211,-6.954 37.4442,-16.0476 16.0476,-12.838 25.1412,-29.4205 27.8158,-49.7473 2.6745,-20.3269 -6.4191,-43.3284 -27.2808,-69.0044 z m -217.7116,243.3876 3.7445,21.9316 c -16.5825,2.6746 -28.8856,3.7444 -37.4443,3.2095 10.1634,14.9777 17.1174,25.676 20.3269,31.5601 l -19.2571,10.1635 c -4.2793,-8.5587 -9.0936,-20.3269 -14.4427,-34.2348 -6.419,9.6286 -14.4428,19.2571 -24.0713,29.4205 l -16.0476,-15.5126 c 9.0936,-9.6285 18.7222,-18.1872 28.8856,-25.1411 -8.0238,-1.6048 -19.792,-5.8841 -35.8395,-12.8381 l 9.6285,-19.257 c 8.5587,4.2793 19.792,10.1634 33.1649,18.7221 0,-16.0475 0.5349,-28.8855 2.1397,-37.9791 l 21.3967,3.2095 c -3.2095,18.1872 -6.419,29.9554 -8.5587,36.3744 12.838,-3.7444 24.6062,-6.954 36.3744,-9.6285 z m -357.86,186.6863 -27.8157,8.5586 -36.3744,-121.4263 c -6.419,-21.3967 -9.0936,-38.5141 -8.0238,-52.4219 1.0699,-13.9079 6.954,-26.7459 17.1174,-37.9792 10.1635,-11.7682 25.1412,-20.3269 45.468,-26.7459 19.792,-5.8841 36.9094,-7.4888 51.3521,-4.2793 14.4428,3.2095 26.7459,10.1634 35.8395,21.3967 9.0936,11.2333 17.1174,28.3506 23.5364,50.2823 l 36.3744,121.4263 -27.8157,8.5587 -36.3744,-121.4264 c -5.3492,-18.1872 -11.2333,-31.5601 -17.1174,-39.049 -5.8841,-7.4888 -13.9079,-12.3031 -23.5364,-14.4427 -9.6285,-2.1397 -20.3268,-1.6048 -32.095,1.6047 -20.8618,6.419 -33.6999,15.5126 -39.584,27.2808 -5.884,11.7682 -5.3491,31.0253 2.6746,57.2362 z m -223.0607,-178.6626 7.4889,218.7814 -29.9554,1.0698 -121.4263,-167.9642 6.419,172.2436 -28.3507,1.0698 -7.4888,-219.3163 29.9554,-1.0698 121.4263,167.9642 -6.419,-171.7086 z m -307.5777,-2.1396 -36.9093,216.1067 -29.4205,-4.8142 -84.517,-189.3609 -29.4205,169.5689 -27.2808,-4.8142 36.9094,-216.1068 29.4204,5.3492 85.052,188.8259 28.8855,-169.5689 z m -300.0888,-69.5394 -89.3313,200.5942 -145.4976,-65.26 10.6983,-23.5363 118.2168,52.9568 27.8158,-61.5155 -110.728,-49.2125 10.1634,-23.5363 110.728,49.2124 30.4903,-67.9346 -123.0311,-55.0965 10.6984,-23.5364 z m -354.6505,26.7459 -18.1872,13.373 c -9.6285,-13.9079 -16.5825,-24.6062 -20.3269,-32.0951 -9.09359,16.0475 -15.51261,26.7459 -19.25703,32.63 l -18.1872,-12.838 c 5.88409,-8.0238 14.44278,-17.6523 24.60621,-28.8856 -11.76819,-1.6047 -24.0713,-4.8143 -37.97916,-8.5587 l 6.95393,-21.9316 c 12.83803,4.2793 25.14114,9.0936 35.83949,14.9777 -2.13967,-8.0238 -3.2095,-20.8618 -4.81426,-38.5141 h 22.46652 c 0,9.6285 -0.5349,23.0015 -1.6047,38.5141 14.4428,-6.9539 26.2109,-12.3031 35.3045,-14.9777 l 6.954,20.8618 c -18.1872,5.3492 -30.4903,8.0238 -37.4443,9.0936 9.6286,9.6285 17.6523,19.257 25.6761,28.3506 z"
     class="fil3 str1"
     id="1" /></svg>